<svg xmlns="http://www.w3.org/2000/svg" version="1.1" xmlns:xlink="http://www.w3.org/1999/xlink" xmlns:svgjs="http://svgjs.com/svgjs" width="512" height="512" x="0" y="0" viewBox="0 0 512 512" style="enable-background:new 0 0 512 512" xml:space="preserve" class=""><g><path xmlns="http://www.w3.org/2000/svg" d="m256 0c-141.159 0-256 114.841-256 256s114.841 256 256 256 256-114.841 256-256-114.841-256-256-256zm-15 481.49c-51.045-3.362-97.512-23.739-133.767-55.51l133.767-133.767zm0-231.703-154.98 154.98c-34.858-39.778-56.02-91.845-56.02-148.767 0-119.575 93.351-217.742 211-225.49zm30 231.703v-189.277l133.767 133.767c-36.255 31.771-82.722 52.148-133.767 55.51zm154.98-76.723-154.98-154.98v-219.277c117.649 7.748 211 105.915 211 225.49 0 56.922-21.162 108.989-56.02 148.767z" fill="#000000" data-original="#000000" class=""></path></g></svg>