<svg xmlns="http://www.w3.org/2000/svg" version="1.1" xmlns:xlink="http://www.w3.org/1999/xlink" xmlns:svgjs="http://svgjs.com/svgjs" width="512" height="512" x="0" y="0" viewBox="0 0 512 512" style="enable-background:new 0 0 512 512" xml:space="preserve" class=""><g transform="matrix(1,0,0,1,80,0)"><path xmlns="http://www.w3.org/2000/svg" d="m284.785156 61.742188c-19.214844 0-34.789062 15.574218-34.789062 34.789062v71.996094c0-19.214844-15.578125-34.789063-34.792969-34.789063s-34.789063 15.574219-34.789063 34.789063v-9.214844c0-19.214844-15.578124-34.792969-34.792968-34.792969s-34.789063 15.578125-34.789063 34.792969v-124.523438c-.003906-19.210937-15.578125-34.789062-34.792969-34.789062-19.214843 0-34.792968 15.578125-34.792968 34.789062v177.398438c-26.230469 11.332031-42.695313 37.820312-41.144532 66.433594l5.136719 85.003906 83.8125 88.847656v59.527344h177.128907v-57.367188l53.398437-104.273437v-253.828125c0-19.214844-15.578125-34.789062-34.792969-34.789062zm0 0" fill="#000000" data-original="#000000" class=""></path></g></svg>