<svg xmlns="http://www.w3.org/2000/svg" version="1.1" xmlns:xlink="http://www.w3.org/1999/xlink" xmlns:svgjs="http://svgjs.com/svgjs" width="512" height="512" x="0" y="0" viewBox="0 0 480.006 480.006" style="enable-background:new 0 0 512 512" xml:space="preserve" class=""><g><path xmlns="http://www.w3.org/2000/svg" d="m477.502 177.753c-5.15-4.88-30.72-31.23-28.51-70.75 1.79-32.18 20.52-53.11 28.49-60.62 5.153-4.846 1.911-13.534-5.17-13.82-60.11-2.34-110.74 34.21-126.03 90.92-.55 2.01-.28 4.16.74 5.98 13.924 24.936 12.023 53.978-2.72 75.22-14.676 21.201-48.078 12.386-50.94-13.34l-4.41-39.66c-.955-8.555-12.97-9.75-15.57-1.54-4.64 14.6-18.05 24.42-33.38 24.42s-28.74-9.82-33.38-24.42c-2.598-8.202-14.614-7.021-15.57 1.54l-4.41 39.66c-2.823 25.368-36.524 35.659-51.94 11.84-14.27-21.83-14.92-50.08-1.72-73.72 1.02-1.82 1.29-3.97.74-5.98-15.29-56.71-65.95-93.25-126.03-90.92-7.095.286-10.313 8.984-5.17 13.82 7.97 7.51 26.7 28.44 28.49 60.62 2.21 39.52-23.36 65.87-28.51 70.75-3.902 3.71-3.111 10.077 1.5 12.73 46.26 26.75 70.64 78.09 62.1 130.8-.775 4.837 2.936 9.259 7.88 9.28 71.43.16 133.65 44.03 158.51 111.75 2.567 6.971 12.445 6.994 15.02 0 24.86-67.72 87.08-111.59 158.51-111.75 4.939-.021 8.656-4.438 7.88-9.28-8.53-52.71 15.84-104.05 62.1-130.8 4.611-2.653 5.403-9.02 1.5-12.73zm-250.5 54.808c0 4.418-3.582 8-8 8s-8-3.582-8-8v-6c0-4.418 3.582-8 8-8s8 3.582 8 8zm42 0c0 4.418-3.582 8-8 8s-8-3.582-8-8v-6c0-4.418 3.582-8 8-8s8 3.582 8 8z" fill="#000000" data-original="#000000" class=""></path></g></svg>